<?xml version="1.0" standalone="no"?><!DOCTYPE svg PUBLIC "-//W3C//DTD SVG 1.1//EN" "http://www.w3.org/Graphics/SVG/1.1/DTD/svg11.dtd"><svg t="1710482916235" class="icon" viewBox="0 0 1024 1024" version="1.1" xmlns="http://www.w3.org/2000/svg" p-id="1556" xmlns:xlink="http://www.w3.org/1999/xlink" width="200" height="200"><path d="M262.4 576l164.266667 177.770667L274.133333 789.333333 192 718.229333 262.4 576z m433.536-341.333333L768 274.282667 743.978667 405.333333l-168.149334-109.717333L695.936 234.666667z m-447.936 0c8 0 14.421333 0.341333 24 8 13.333333 10.666667 62.506667 45.482667 62.506667 45.482666l8.917333 15.850667c16.234667 0.810667 16.64 2.282667 37.141333 17.344L832 627.562667C828.522667 635.093333 774.848 789.333333 774.848 789.333333h-82.858667L192 261.333333s8.149333-3.050667 16-8c12.309333-7.744 27.797333-18.666667 40-18.666666zM309.333333 128H128c-11.264 5.632-21.333333 12.16-21.333333 34.666667v192l21.077333 58.624L106.666667 442.666667v24l21.333333 16V512l-21.333333 21.333333v80l21.333333 13.333334V714.666667c-22.272 15.850667-21.333333 34.666667-21.333333 56.298666v101.034667C156.565333 884.458667 148.288 896 205.333333 896H288c7.722667-0.490667 13.738667-2.112 21.333333-2.837333 21.205333-2.048 34.666667-18.496 34.666667-18.496l56 21.333333 21.333333-21.333333s27.968 34.624 34.666667 42.666666l18.666667-21.333333L533.333333 917.333333s21.76-20.885333 45.333334-21.333333H693.333333c1.749333-1.685333 21.333333-21.333333 21.333334-21.333333 8.981333 5.376 1.045333 21.333333 82.666666 21.333333 22.528 0 42.666667-5.333333 42.666667-5.333333-3.456-11.52-3.84-9.173333-10.666667-16 0 0 53.333333 0 88 21.333333V565.482667l-42.666666 13.184c0.832-6.762667 20.544-15.744 21.333333-29.333334 1.002667-17.130667-0.938667-76.501333-3.434667-89.045333-1.28-6.4-13.504-25.152-17.898666-30.954667 5.226667-14.101333 21.333333-24 21.333333-24v-16l21.333333-12.437333v-90.069333L896 197.333333l21.333333-23.104V148.714667l-22.528-19.52-73.173333-12.096-16.896 12.096-8.448-14.08s-110.592-8.405333-130.645333-8.405334c-25.664 0-21.930667 1.92-30.613334 30.826667l-36.821333 3.754667L594.666667 128h-37.333334l6.144-6.762667c6.528-6.165333 4.245333-3.690667 9.344-14.570666h-128.384c-2.005333 3.669333-9.344 11.989333-15.125333 21.333333 0 0-11.264-0.106667-19.712 5.525333S401.194667 149.333333 389.930667 149.333333h-47.850667C313.92 149.333333 309.333333 128 309.333333 128z" fill="#F44336" p-id="1557"></path></svg>